<svg viewBox="0 0 50 50" xmlns="http://www.w3.org/2000/svg"><path d="m13.9375 12c-5.449219 0-9.90625 4.425781-9.90625 9.875v2.28125c-2.289062.578125-4 2.667969-4 5.125 0 2.214844 1.429688 4.039063 3.375 4.8125l2.4375 6.34375.03125.09375h.03125c.242188.75.660156 1.34375 1.15625 1.8125l-1.75 3.53125c-.699219 1.394531-.144531 3.113281 1.25 3.8125.402344.203125.851563.3125 1.28125.3125 1.042969 0 2.066406-.574219 2.5625-1.5625l2.1875-4.4375h24.8125l2.1875 4.4375c.496094.988281 1.519531 1.5625 2.5625 1.5625.429688 0 .878906-.109375 1.28125-.3125 1.394531-.699219 1.949219-2.417969 1.25-3.8125l-1.75-3.53125c.496094-.46875.914063-1.0625 1.15625-1.8125h.03125l.03125-.09375 2.4375-6.34375c1.945313-.773437 3.375-2.597656 3.375-4.8125 0-2.457031-1.710937-4.546875-4-5.125v-2.28125c0-5.449219-4.457031-9.875-9.90625-9.875zm0 2h22.125c4.367188 0 7.90625 3.507813 7.90625 7.875v2.1875c-1.90625.269531-3.476562 1.566406-4.15625 3.3125h-.03125l-1.625 3.71875c-.132812-.042969-.210937-.074219-.375-.125-.753906-.226562-1.820312-.523437-3.09375-.8125-2.550781-.578125-5.964844-1.15625-9.5625-1.15625s-7.078125.574219-9.6875 1.15625c-1.304687.289063-2.410156.582031-3.1875.8125-.175781.050781-.265625.082031-.40625.125l-1.53125-3.4375h-.03125c-.609375-1.886719-2.246094-3.308594-4.25-3.59375v-2.1875c0-4.367187 3.539063-7.875 7.90625-7.875zm-8.625 12c1.488281 0 2.726563.984375 3.125 2.34375v.0625l.03125.0625 1.9375 4.28125.46875 1.03125.84375-.53125.09375-.0625c.015625-.011719 0 .019531.03125 0 .039063-.015625.070313-.011719.125-.03125.199219-.066406.476563-.171875.84375-.28125.738281-.214844 1.804688-.5 3.0625-.78125 2.511719-.558594 5.867188-1.09375 9.25-1.09375 3.382813 0 6.675781.539063 9.125 1.09375 1.222656.277344 2.226563.566406 2.9375.78125.355469.109375.652344.183594.84375.25.09375.03125.144531.078125.1875.09375h.03125l.875.53125.46875-1.03125 2.03125-4.53125v-.03125l.03125-.03125c.464844-1.242187 1.621094-2.125 3.03125-2.125 1.816406 0 3.28125 1.464844 3.28125 3.28125 0 1.507813-1.023437 2.742188-2.40625 3.125l-.5.125-.15625.46875-2.65625 6.8125v.03125l-.03125.03125c-.292969 1.019531-1.15625 1.546875-2.125 1.84375-.832031.257813-1.492187.28125-1.6875.28125-.257812-.113281-.554687-.113281-.8125 0h-25.21875c-.242187-.097656-.507812-.097656-.75 0-.164062 0-.859375-.015625-1.71875-.28125-.96875-.296875-1.832031-.824219-2.125-1.84375l-.03125-.03125v-.0625l-2.65625-6.78125-.15625-.46875-.5-.125c-1.386719-.382812-2.40625-1.617187-2.40625-3.125 0-1.816406 1.464844-3.28125 3.28125-3.28125zm3.46875 17.40625c.175781.070313.363281.167969.53125.21875.402344.125.777344.195313 1.125.25l-1.84375 3.65625c-.152344.304688-.4375.46875-.75.46875-.125 0-.25-.03125-.375-.09375-.429687-.214844-.589844-.695312-.375-1.125zm32.4375 0 1.6875 3.375c.214844.429688.054688.910156-.375 1.125-.125.0625-.25.09375-.375.09375-.3125 0-.597656-.160156-.75-.46875l-1.84375-3.65625c.347656-.054687.722656-.125 1.125-.25.167969-.050781.355469-.148437.53125-.21875z"/></svg>